<svg width="16" height="16" viewBox="0 0 16 16" fill="none" xmlns="http://www.w3.org/2000/svg">
<path d="M13.3333 4.5H2.66668C1.9303 4.5 1.33334 5.09695 1.33334 5.83333V12.1667C1.33334 12.903 1.9303 13.5 2.66668 13.5H13.3333C14.0697 13.5 14.6667 12.903 14.6667 12.1667V5.83333C14.6667 5.09695 14.0697 4.5 13.3333 4.5Z" stroke="white" stroke-linecap="round" stroke-linejoin="round"/>
<path d="M10.6667 13V2.83333C10.6667 2.47971 10.5262 2.14057 10.2762 1.89052C10.0261 1.64048 9.68697 1.5 9.33334 1.5H6.66668C6.31305 1.5 5.97392 1.64048 5.72387 1.89052C5.47382 2.14057 5.33334 2.47971 5.33334 2.83333V13" stroke="white" stroke-linecap="round" stroke-linejoin="round"/>
</svg>
