<svg width="16" height="16" viewBox="0 0 16 16" fill="none" xmlns="http://www.w3.org/2000/svg">
<path d="M15.0267 4.27999C14.9475 3.9636 14.7862 3.6737 14.5591 3.43959C14.332 3.20548 14.0472 3.03545 13.7333 2.94666C12.5867 2.66666 8 2.66666 8 2.66666C8 2.66666 3.41333 2.66666 2.26666 2.97332C1.95283 3.06211 1.66798 3.23215 1.44089 3.46626C1.21381 3.70037 1.05252 3.99026 0.97333 4.30666C0.763473 5.47036 0.660821 6.65086 0.666664 7.83332C0.659183 9.02469 0.761842 10.2142 0.97333 11.3867C1.06064 11.6932 1.22553 11.9721 1.45209 12.1963C1.67865 12.4205 1.95921 12.5825 2.26666 12.6667C3.41333 12.9733 8 12.9733 8 12.9733C8 12.9733 12.5867 12.9733 13.7333 12.6667C14.0472 12.5779 14.332 12.4078 14.5591 12.1737C14.7862 11.9396 14.9475 11.6497 15.0267 11.3333C15.2349 10.1784 15.3375 9.00688 15.3333 7.83332C15.3408 6.64196 15.2382 5.45246 15.0267 4.27999V4.27999Z" stroke="white" stroke-linecap="round" stroke-linejoin="round"/>
<path d="M6.5 10.0134L10.3333 7.83335L6.5 5.65335V10.0134Z" stroke="white" stroke-linecap="round" stroke-linejoin="round"/>
</svg>
